<svg xmlns="http://www.w3.org/2000/svg" xmlns:xlink="http://www.w3.org/1999/xlink" viewBox="0 0 29 29" preserveAspectRatio="xMinYMin meet">
	<defs>
		<filter id="a" color-interpolation-filters="sRGB">
			<feFlood result="flood" flood-color="#000" flood-opacity=".2"/>
			<feComposite result="composite1" operator="in" in2="SourceGraphic" in="flood"/>
			<feGaussianBlur result="blur" stdDeviation=".2" in="composite1"/>
			<feOffset result="offset" dy=".3"/>
			<feComposite result="composite2" in2="offset" in="SourceGraphic"/>
		</filter>
		<symbol id="b">
			<path d="M6,22 A4,4 0 1,1 10,18 A5.5,5.5 0 1,1 17,17 A5,5 0 1,1 22,22 z" fill="#fefefe" filter="url(#a)"/>
		</symbol>
		<symbol id="c">
			<path fill="#6ec6ff" filter="url(#a)" d="M4.314 0v1.375L3.027.088l-.423.424 1.71 1.713V3.98l-1.52-.878L2.17.764l-.58.154.47 1.76L.87 1.99l-.3.52 1.192.687L0 3.67l.156.578 2.338-.627 1.522.88-1.522.88-2.338-.63L0 5.33l1.76.473-1.192.687.3.52 1.19-.688-.47 1.76.58.154.627-2.338 1.52-.878v1.755l-1.71 1.713.422.424 1.287-1.287V9h.6V7.625l1.29 1.287.423-.424-1.713-1.713V5.018l1.522.88.627 2.338.58-.154-.473-1.76 1.19.688.302-.52-1.19-.687L9.23 5.33l-.156-.578-2.338.627-1.52-.88 1.52-.88 2.338.627.156-.578-1.76-.474 1.192-.687-.3-.52-1.192.687.473-1.76-.58-.154L6.436 3.1l-1.522.88V2.226L6.627.512 6.203.088l-1.29 1.287V0h-.6z"/>
		</symbol>
	</defs>
	<use xlink:href="#c" x="6" y="31" transform="scale(0.6)"/>
	<use xlink:href="#c" x="27" y="27" transform="scale(0.75)"/>
	<use xlink:href="#b" x="0" y="-5" transform="scale(0.75)"/>
	<use xlink:href="#b" x="0" y="-3"/>
	<use xlink:href="#c" x="10" y="16"/>
</svg>