<?xml version="1.0" encoding="UTF-8" standalone="no"?>
<svg
   xmlns:dc="http://purl.org/dc/elements/1.1/"
   xmlns:cc="http://creativecommons.org/ns#"
   xmlns:rdf="http://www.w3.org/1999/02/22-rdf-syntax-ns#"
   xmlns:svg="http://www.w3.org/2000/svg"
   xmlns="http://www.w3.org/2000/svg"
   id="svg4"
   version="1.1"
   viewBox="0 0 24 24"
   width="24"
   height="24">
  <metadata
     id="metadata10">
    <rdf:RDF>
      <cc:Work
         rdf:about="">
        <dc:format>image/svg+xml</dc:format>
        <dc:type
           rdf:resource="http://purl.org/dc/dcmitype/StillImage" />
        <dc:title></dc:title>
      </cc:Work>
    </rdf:RDF>
  </metadata>
  <defs
     id="defs8" />
  <path
     id="path16"
     d="M 12,0 A 12,12 0 0 0 0,12 12,12 0 0 0 12,24 12,12 0 0 0 24,12 12,12 0 0 0 12,0 Z m 2.347617,4.5 3.984023,5.36883 -1.074023,0.79804 -3.984023,-5.37011 z m -2.476757,2.14805 5.143827,4.27804 -0.848437,1.02176 -5.143828,-4.27793 z m -1.9751962,2.77207 6.0617582,2.84039 -0.554414,1.21195 -6.0611718,-2.82363 z m -1.1430468,3.03 6.54668,1.36851 -0.276094,1.31649 -6.5477344,-1.36805 z m -3.0840233,1.69793 h 1.3349999 v 4.01824 h 9.3708984 v -4.01824 h 1.333125 v 5.35207 H 5.6685937 Z m 2.6682425,1.33382 h 6.6863668 v 1.33325 H 8.3368362 Z"
     style="fill:#f48024;fill-opacity:1;fill-rule:evenodd;stroke-width:0.24510221" />
</svg>
