<?xml version="1.0" encoding="UTF-8" standalone="no"?>
<svg
   xmlns:dc="http://purl.org/dc/elements/1.1/"
   xmlns:cc="http://creativecommons.org/ns#"
   xmlns:rdf="http://www.w3.org/1999/02/22-rdf-syntax-ns#"
   xmlns:svg="http://www.w3.org/2000/svg"
   xmlns="http://www.w3.org/2000/svg"
   id="svg4"
   version="1.1"
   width="24"
   height="24"
   viewBox="0 0 24 24">
  <metadata
     id="metadata10">
    <rdf:RDF>
      <cc:Work
         rdf:about="">
        <dc:format>image/svg+xml</dc:format>
        <dc:type
           rdf:resource="http://purl.org/dc/dcmitype/StillImage" />
        <dc:title></dc:title>
      </cc:Work>
    </rdf:RDF>
  </metadata>
  <defs
     id="defs8" />
  <path
     id="path16"
     d="M 12,0 A 12,12 0 0 0 0,12 12,12 0 0 0 12,24 12,12 0 0 0 24,12 12,12 0 0 0 12,0 Z M 9.3922266,6.68262 h 1.7097654 c 0.335947,1.15961 0.916088,2.53642 1.679766,3.68343 0.49792,-1.69892 1.730114,-2.72953 3.317461,-2.72953 l 0.0023,0.002 c 1.8747,0 3.398437,1.52494 3.398437,3.39844 0,1.8735 -1.524337,3.40629 -3.398437,3.40629 -0.87586,0 -1.639462,-0.26937 -2.303555,-0.6941 l -0.758906,3.56824 h -1.7475 l 1.043788,-4.92035 c -0.49492,-0.6191 -0.902837,-1.32105 -1.233984,-2.01094 v 0.74449 c 0,1.81771 -1.4805938,3.31149 -3.3007028,3.31149 C 5.9805327,14.44184 4.5,12.9481 4.5,11.12859 V 6.68332 h 1.7097654 v 4.44527 c 0,0.87706 0.7138782,1.59094 1.5909378,1.59094 0.8776596,0 1.5915234,-0.71386 1.5915234,-1.59152 z m 6.7069924,2.66179 c -1.244201,0 -1.646205,1.19803 -1.773984,1.91192 l -0.006,0.0264 -0.142735,0.67429 c 0.587306,0.47453 1.232806,0.76676 1.922696,0.76676 v -10e-4 c 0.93165,0 1.688671,-0.75761 1.688671,-1.68926 0,-0.93105 -0.757021,-1.68879 -1.688671,-1.68879 z"
     style="fill:#6fda44;fill-opacity:1;fill-rule:evenodd;stroke-width:0.11912467" />
</svg>
