<svg xmlns="http://www.w3.org/2000/svg" viewBox="0 0 500 250" height="250" width="500">
  <path d="M120 12.5C69 12.5 27.5 54 27.5 105v95h25v-82.5h55V200h25V12.5H120zm37.5 0V200h25V38.7c31.4 5.8 55 33.2 55 66.3h25c0-33 23.6-60.5 55-66.3V200h25V12.5H330c-34 0-64 18.7-80 46.3-16-27.6-46-46.3-80-46.3h-12.5zm210 0V120c0 51 41.6 92.5 92.5 92.5v-25c-37.4 0-67.5-30-67.5-67.5v-2.5h80V105c0-51-41.6-92.5-92.5-92.5h-12.5zm-260 26.2v53.8H53.7c5-27.3 26.5-48.7 53.8-53.8zm285 0c27.3 5 48.7 26.5 53.8 53.8h-53.8V38.7z"/>
</svg>