<svg xmlns="http://www.w3.org/2000/svg" viewBox="0 0 500 500" width="500" height="500">
	<path class="gear" d="M220 0l-7.7 53.6C188.8 58.2 166.7 67 146.8 79l-45.3-34L52 94.3 84.7 138c-13.2 19.2-23 40.8-28.8 64l-56 8v70l53.2 7.7c4.6 23.5 13.3 45.6 25.3 65.5l-34 45.3L94.3 448l43.6-32.6c19 13 40.4 23 64 28.7l8 56h70l7.3-53.2C311 442 333 433.3 353 421.3l45.4 34L448 406l-33-43.8c13-19.2 23-40.8 28.7-64l56-8v-70l-53.7-7.7c-4.2-23.5-13-45.5-25-65.5l34-45.3L405.8 52 362 84.6c-19.2-13-40.8-23-64-28.7l-8-56h-70zm30 150c55.8 0 100 44.2 100 100s-44.2 100-100 100-100-44.2-100-100 44.2-100 100-100z" fill="#fefefe"/>
</svg>