<svg xmlns="http://www.w3.org/2000/svg" version="1.1" width="500" height="250" viewBox="0 0 500 250">
	<defs>
		<style type="text/css">
			<![CDATA[
				.droppy {
					stroke-width: 0;
					fill: white;
					fill-opacity: 1;
				}
				g {
					clip-path: url(#logo);
				}
				.cloud {
					stroke-width: 0;
					fill: white;
					fill-opacity: 1;
				}
				rect {
					fill: #2c3e50;
				}
				#bg {
					fill: url(#rain-drops);
				}
				#rain-derops {
					patternTransform: translate(340);
				}
			]]>
		</style>
		<symbol id="drop">
			<path class="droppy" d="M0 9.6L2.6 0l2.6 9.6a2.6 2.6 0 1 1-5.2 0"/>
		</symbol>
		<pattern id="rain-drops" patternUnits="userSpaceOnUse" width="30" height="30" patternTransform="translate(340)">
			<rect style="fill:#2c3e50" x="0" y="0" width="30" height="30"/>
			<use href="#drop" x="4.9" y="1.4"/>
			<use href="#drop" x="19.9" y="16.4"/>
			<animateTransform
            attributeName="patternTransform"
            begin="0s"
            dur="20s"
            type="translate"
            from="0 0"
            to="0 2400"
            repeatCount="indefinite" 
			/>
		</pattern>
		<clipPath id="logo">
			<path d="M120 12.5C69 12.5 27.5 54 27.5 105v95h25v-82.5h55V200h25V12.5H120zm37.5 0V200h25V38.7c31.4 5.8 55 33.2 55 66.3h25c0-33 23.6-60.5 55-66.3V200h25V12.5H330c-34 0-64 18.7-80 46.3-16-27.6-46-46.3-80-46.3h-12.5zm210 0V120c0 51 41.6 92.5 92.5 92.5v-25c-37.4 0-67.5-30-67.5-67.5v-2.5h80V105c0-51-41.6-92.5-92.5-92.5h-12.5zm-260 26.2v53.8H53.7c5-27.3 26.5-48.7 53.8-53.8zm285 0c27.3 5 48.7 26.5 53.8 53.8h-53.8V38.7z"/>
		</clipPath>
	</defs>
	<g>
		<rect id="bg" x="0" y="0" width="500" height="250"/>
		<path class="cloud" d="M0,0 V30 A30,30 0 0,0 60,30 A40,40 0 0,0 120,35 A45,45 0 0,0 180,45 A50,50 0 0,0 260,30 A30,30 0 0,0 300,30 A40,40 0 0,0 360,30 A30,30 0 0,0 420,30 A35,35 0 0,0 480,25 A30,30 0 0,0 500,30 V0 z"/>
	</g>
	<!-- <path style="stroke-width:25px;stroke: black;fill-opacity:0;" d="M30,200 V105 A80,80 0 0,1 110,25 V200 M30,105 H110 M160,200 V25 A80,80 0 0,1 240,105 A80,80 0 0,1 320,25 V200 M450,200 A80,80 0 0,1 370,120 V25 A80,80 0 0,1 450,105 H370"/> -->
</svg>