<svg xmlns="http://www.w3.org/2000/svg" xmlns:xlink="http://www.w3.org/1999/xlink" viewBox="0 0 29 29" preserveAspectRatio="xMinYMin meet">
	<defs>
		<filter id="a" color-interpolation-filters="sRGB">
			<feFlood result="flood" flood-color="#000" flood-opacity=".2"/>
			<feComposite result="composite1" operator="in" in2="SourceGraphic" in="flood"/>
			<feGaussianBlur result="blur" stdDeviation=".2" in="composite1"/>
			<feOffset result="offset" dy=".3"/>
			<feComposite result="composite2" in2="offset" in="SourceGraphic"/>
		</filter>
		<symbol id="b">
			<path d="M6,22 A4,4 0 1,1 10,18 A5.5,5.5 0 1,1 17,17 A5,5 0 1,1 22,22 z" fill="#fefefe" filter="url(#a)"/>
		</symbol>
		<symbol id="c">
			<path d="M.5,0V3.5" stroke="#FFE33A" stroke-width="1"/>
		</symbol>
		<symbol id="d">
			<g filter="url(#a)">
				<use xlink:href="#c" x="14" y="2"/>
				<use xlink:href="#c" x="14" y="2" transform="rotate(45 14.5 14.5)"/>
				<use xlink:href="#c" x="14" y="2" transform="rotate(90 14.5 14.5)"/>
				<use xlink:href="#c" x="14" y="2" transform="rotate(135 14.5 14.5)"/>
				<use xlink:href="#c" x="14" y="2" transform="rotate(180 14.5 14.5)"/>
				<use xlink:href="#c" x="14" y="2" transform="rotate(-45 14.5 14.5)"/>
				<use xlink:href="#c" x="14" y="2" transform="rotate(-90 14.5 14.5)"/>
				<use xlink:href="#c" x="14" y="2" transform="rotate(-135 14.5 14.5)"/>
				<circle r="7.5" cx="14.5" cy="14.5" fill="#FFE33A"/>
			</g>
		</symbol>
		<symbol id="e">
			<path d="M0 3.4C0 4.4.7 5 1.7 5s1.7-.6 1.7-1.6S1.7 0 1.7 0 0 2.4 0 3.4z" filter="url(#a)" fill="#6ec6ff"/>
		</symbol>
	</defs>
	<use xlink:href="#e" x="5" y="22"/>
	<use xlink:href="#e" x="12" y="20"/>
	<use xlink:href="#e" x="19" y="21"/>
	<use xlink:href="#d" x="5" y="2" transform="scale(0.5)"/>
	<use xlink:href="#b" x="0" y="-1"/>
</svg>