<svg xmlns="http://www.w3.org/2000/svg" version="1.1" viewBox="0 0 480 225" preserveAspectRatio="xMinYMin meet">
	<defs>
		<symbol id="a">
			<path fill="#fff" d="M0 10c0 2.8 2.2 5 5 5s5-2.2 5-5S5 0 5 0 0 7.2 0 10z"/>
		</symbol>
		<symbol id="b">
			<path d="m 72.116744,36.852158 c -40.314519,0 -56.321744,47.132406 -56.321744,83.593402 0,49.80022 26.678716,67.88244 50.689568,67.88244 18.675106,0 32.607328,-12.74648 38.535882,-28.16088 2.96431,14.82142 10.67148,28.16088 28.75381,28.16088 8.77432,0 20.38446,-2.44068 29.74182,-19.14942 v 17.37086 h 29.64306 V 91.691754 c 5.33574,-21.935837 10.96786,-32.310892 23.4179,-32.310892 14.82159,0 16.60004,14.228636 16.60004,28.160858 v 99.00772 h 29.64306 V 91.691754 c 3.26074,-23.121571 10.96786,-32.310892 23.12152,-32.310892 10.07872,0 18.97158,6.521451 18.97158,32.014456 0,8.003622 -0.88931,44.168102 -0.88931,51.578782 0,24.01094 9.78223,45.3539 34.68237,45.3539 10.07866,0 24.62354,-3.50783 34.52431,-31.1054 10.54299,22.23232 30.63107,31.1054 49.17767,31.1054 21.93594,0 41.79672,-11.85728 41.79672,-29.64306 0,-2.075 -0.29638,-4.74276 -0.59293,-7.41074 -7.41079,10.67148 -19.26785,14.52504 -32.01444,14.52504 -16.89647,0 -31.12513,-7.1143 -34.08949,-38.53581 40.01816,-4.44649 64.32548,-24.30727 64.32548,-51.875337 0,-31.421617 -19.86083,-38.535935 -39.42534,-38.535935 -42.68592,0 -56.61808,49.800276 -56.61808,83.000422 0,6.62024 0.55324,12.67734 1.53158,18.2306 -4.76265,19.26791 -11.75841,27.71606 -20.29571,27.71606 -13.04291,0 -13.33929,-19.26796 -13.33929,-25.4929 0,-15.4144 1.77856,-36.46098 1.77856,-50.393164 0,-22.82514 -4.74281,-53.061018 -40.61092,-53.061018 -9.48585,0 -23.12158,2.66787 -34.08944,26.38228 -4.74292,-14.821514 -14.22877,-26.38228 -34.9788,-26.38228 -10.07866,0 -22.52876,2.964306 -32.60742,21.935832 V 38.3343 h -29.64301 v 97.3082 c -4.47605,19.91024 -11.68911,30.15674 -20.8489,30.15674 -12.74653,0 -13.33929,-18.97158 -13.33929,-26.6787 V 38.3343 H 99.684752 V 52.562958 C 94.052587,40.409314 81.602512,36.852158 72.116744,36.852158 Z M 428.03062,51.37723 c 9.48573,0 14.82147,6.225037 14.82147,21.046557 0,22.232268 -17.78572,38.832423 -45.65028,43.278853 0,-29.050206 10.07861,-64.32541 30.82881,-64.32541 z M 82.195368,53.155825 c 8.892913,0 14.821514,6.521451 17.489384,12.746488 v 67.586107 c 0,18.08222 -13.635786,32.31082 -25.78943,32.31082 -17.192959,0 -26.975141,-13.63562 -26.975141,-47.42884 0,-27.567949 9.782182,-65.214575 35.275187,-65.214575 z"/>
		</symbol>
		<pattern id="c" patternUnits="userSpaceOnUse" width="40" height="40" patternTransform="rotate(15)">
			<rect fill="#2196f3" x="0" y="0" width="40" height="40"/>
			<use href="#a" x="5" y="2.5"/>
			<use href="#a" x="25" y="22.5"/>
			<animateTransform
				attributeName="patternTransform"
				begin="0s"
				dur="40s"
				type="translate"
				from="0 0"
				to="30 2400"
				repeatCount="indefinite"
			/>
		</pattern>
		<mask id="d">
			<use href="#b" x="0" y="0" fill="#fff"/>
		</mask>
	</defs>
	<use href="#b" x="0" y="0" stroke="#2196f3" stroke-width="5px"/>
	<g mask="url(#d)">
		<rect fill="url(#c)" x="0" y="0" width="480" height="225"/>
		<path fill="#fff" d="M0,0 V30 A30,30 0 0,0 60,30 A40,40 0 0,0 120,35 A45,45 0 0,0 180,45 A50,50 0 0,0 260,30 A30,30 0 0,0 300,30 A40,40 0 0,0 360,30 A30,30 0 0,0 420,30 A35,35 0 0,0 480,25 A30,30 0 0,0 480,30 V0 z"/>
	</g>
</svg>