<?xml version="1.0" encoding="UTF-8" standalone="no"?>
<svg
   xmlns:dc="http://purl.org/dc/elements/1.1/"
   xmlns:cc="http://creativecommons.org/ns#"
   xmlns:rdf="http://www.w3.org/1999/02/22-rdf-syntax-ns#"
   xmlns:svg="http://www.w3.org/2000/svg"
   xmlns="http://www.w3.org/2000/svg"
   id="svg4"
   version="1.1"
   width="24"
   height="24"
   viewBox="0 0 24 24">
  <metadata
     id="metadata10">
    <rdf:RDF>
      <cc:Work
         rdf:about="">
        <dc:format>image/svg+xml</dc:format>
        <dc:type
           rdf:resource="http://purl.org/dc/dcmitype/StillImage" />
        <dc:title></dc:title>
      </cc:Work>
    </rdf:RDF>
  </metadata>
  <defs
     id="defs8" />
  <path
     id="path16"
     d="M 12,0 A 12,12 0 0 0 0,12 12,12 0 0 0 12,24 12,12 0 0 0 24,12 12,12 0 0 0 12,0 Z M 6.3031638,4.5123 c 0.9929586,0 1.8011724,0.80872 1.8011724,1.80352 0,0.99485 -0.8076138,1.80246 -1.8011724,1.80246 -0.9965999,0 -1.8030466,-0.80702 -1.8030466,-1.80187 0,-0.9942 0.8070467,-1.80411 1.8030466,-1.80411 z m 9.4679302,4.72325 c 3.1482,0 3.729023,2.0711 3.729023,4.7639 v 5.48825 h -3.106875 v -4.86422 c 0,-1.1598 -0.02099,-2.65196 -1.615195,-2.65196 -1.6176,0 -1.865977,1.26353 -1.865977,2.56793 v 4.94766 H 9.8058984 V 9.48504 h 2.9819536 v 1.36687 h 0.04207 c 0.4152,-0.7872 1.429172,-1.61519 2.941172,-1.61519 z M 4.7479687,9.48504 7.8558984,9.48604 V 19.48682 H 4.7479687 Z"
     style="fill:#0077b5;fill-rule:evenodd;stroke-width:0.22131333;fill-opacity:1" />
</svg>
