<svg xmlns="http://www.w3.org/2000/svg" height="250" width="250" viewBox="0 0 250 250">
  <path d="M78.62 226.57c94.34 0 145.94-78.16 145.94-145.94 0-2.22 0-4.43-.15-6.63A104.36 104.36 0 0 0 250 47.45a102.38 102.38 0 0 1-29.46 8.07 51.47 51.47 0 0 0 22.55-28.37 102.8 102.8 0 0 1-32.6 12.45 51.34 51.34 0 0 0-87.4 46.78 145.62 145.62 0 0 1-105.7-53.6 51.33 51.33 0 0 0 15.86 68.48A50.9 50.9 0 0 1 10 94.84v.65a51.3 51.3 0 0 0 41.15 50.24 51.2 51.2 0 0 1-23.16.88 51.35 51.35 0 0 0 47.9 35.62 102.92 102.92 0 0 1-63.7 22A104.4 104.4 0 0 1 0 203.5a145.2 145.2 0 0 0 78.6 23"/>
</svg>