<svg xmlns="http://www.w3.org/2000/svg" viewBox="0 0 250 250" height="250" width="250">
  <path d="M193.35 137.07c-11.5 0-22.26-4.87-32.05-12.78l2.38-11.24.1-.44c2.13-11.9 8.83-31.87 29.57-31.87 15.53 0 28.15 12.63 28.15 28.15 0 15.53-12.62 28.16-28.15 28.16zm0-84.8c-26.46 0-47 17.18-55.3 45.5-12.73-19.12-22.4-42.07-28-61.4h-28.5v74.1c0 14.63-11.9 26.53-26.53 26.53-14.62 0-26.52-11.9-26.52-26.52v-74.1H0v74.1c0 30.33 24.68 55.23 55.02 55.23 30.34 0 55.02-24.9 55.02-55.2V98.1c5.52 11.5 12.32 23.2 20.57 33.52l-17.4 82.02h29.13l12.65-59.48c11.07 7.08 23.8 11.57 38.4 11.57 31.24 0 56.65-25.55 56.65-56.78s-25.4-56.65-56.65-56.65"/>
</svg>